<svg xmlns="http://www.w3.org/2000/svg" xmlns:xlink="http://www.w3.org/1999/xlink" width="500" zoomAndPan="magnify" viewBox="0 0 375 374.999991" height="500" preserveAspectRatio="xMidYMid meet" version="1.0"><defs><g/><clipPath id="922b0202b1"><path d="M 2 2.578125 L 375 2.578125 L 375 372 L 2 372 Z M 2 2.578125 " clip-rule="nonzero"/></clipPath><clipPath id="6ecfa1f960"><path d="M 103.285156 139 L 155 139 L 155 178 L 103.285156 178 Z M 103.285156 139 " clip-rule="nonzero"/></clipPath></defs><rect x="-37.5" width="450" y="-37.499999" height="449.999989" fill-opacity="0"/><rect x="-37.5" width="450"  y="-37.499999" height="449.999989" fill-opacity="0"/><rect x="-37.5" width="450"  y="-37.499999" height="449.999989" fill-opacity="0"/><g clip-path="url(#922b0202b1)"><path fill="#96d7fb" d="M 184.710938 2.578125 C 207.769531 3.230469 229.8125 7.101562 251.277344 15.820312 C 261.304688 19.878906 272.691406 22.292969 283.480469 22.347656 C 299.472656 22.414062 311.007812 30.53125 319.964844 41.15625 C 341.648438 66.878906 360.246094 94.726562 366.960938 128.695312 C 367.441406 131.195312 367.921875 133.757812 368.882812 136.09375 C 380.191406 163.191406 377.722656 190.410156 369.445312 217.585938 C 365.464844 230.613281 361.914062 243.898438 356.480469 256.324219 C 346.425781 279.285156 330.351562 298.09375 311.824219 314.699219 C 294.039062 330.636719 275.269531 345.199219 253.386719 355.464844 C 233.347656 364.851562 212.601562 372.296875 190.464844 371.070312 C 174.792969 370.191406 159.105469 366.160156 143.832031 362.019531 C 85.066406 346.109375 40.980469 311.683594 14.292969 256.40625 C 1.195312 229.28125 0.117188 200.460938 5.617188 171.464844 C 9.472656 151.164062 14.628906 131.074219 20.140625 111.128906 C 22.542969 102.375 25.589844 92.828125 31.261719 86.113281 C 46.867188 67.679688 60.765625 47.722656 82.007812 34.226562 C 103.246094 20.71875 125.863281 11.667969 150.109375 6.449219 C 161.390625 4.019531 173.164062 3.792969 184.710938 2.578125 " fill-opacity="1" fill-rule="nonzero"/></g><path fill="#af9887" d="M 145.078125 212.820312 C 146.488281 215.898438 143.671875 232.316406 142.5625 234.957031 C 141.457031 237.597656 133.609375 240.941406 131.09375 239.269531 C 128.578125 237.597656 127.871094 234.386719 131.09375 232.015625 C 134.3125 229.640625 134.179688 226.027344 134.011719 222.550781 C 133.875 219.074219 135.453125 211.015625 137.699219 209.042969 C 140.148438 206.96875 143.703125 209.777344 145.078125 212.820312 Z M 190.761719 214.492188 C 188.484375 216.464844 186.90625 224.523438 187.074219 228 C 187.207031 231.480469 187.34375 235.089844 184.15625 237.464844 C 180.9375 239.839844 181.640625 243.050781 184.15625 244.722656 C 186.671875 246.394531 194.488281 243.050781 195.628906 240.40625 C 196.765625 237.765625 199.550781 221.3125 198.144531 218.269531 C 196.734375 215.226562 193.179688 212.417969 190.761719 214.492188 Z M 190.761719 214.492188 " fill-opacity="1" fill-rule="nonzero"/><path fill="#ccb6a3" d="M 230.476562 161.859375 C 217.058594 143.9375 194.753906 130.730469 180.097656 128.019531 C 165.4375 125.3125 147.394531 130.328125 140.921875 134.707031 C 134.414062 139.089844 127.300781 141.195312 120.390625 142.03125 C 113.484375 142.867188 109.089844 140.359375 106.773438 143.503906 C 103.957031 147.316406 112.308594 165.304688 116.902344 173.429688 C 121.5 181.589844 126.261719 202.523438 130.050781 210.480469 C 131.695312 213.957031 135.988281 218.339844 141.625 222.519531 C 141.222656 224.625 141.019531 226.664062 141.085938 228 C 141.222656 231.480469 141.355469 235.089844 138.167969 237.464844 C 134.949219 239.839844 135.652344 243.050781 138.167969 244.722656 C 140.683594 246.394531 148.5 243.050781 149.640625 240.40625 C 150.210938 239.035156 151.25 234.019531 151.886719 229.070312 C 156.820312 231.78125 162.117188 234.085938 167.25 235.558594 C 174.125 237.53125 185.160156 238.199219 196.835938 237.632812 C 196.566406 239.539062 195.828125 241.277344 193.984375 242.613281 C 190.761719 244.988281 191.46875 248.199219 193.984375 249.871094 C 196.5 251.542969 204.3125 248.199219 205.453125 245.558594 C 205.925781 244.417969 206.695312 240.84375 207.332031 236.828125 C 219.242188 235.558594 230.644531 233.050781 237.855469 229.472656 C 254.089844 221.3125 244.464844 180.519531 230.476562 161.859375 Z M 230.476562 161.859375 " fill-opacity="1" fill-rule="nonzero"/><path fill="#4f250a" d="M 134.78125 138.621094 C 136.359375 141.628906 142.363281 139.222656 149.339844 144.539062 C 156.316406 149.855469 168.828125 179.414062 171.34375 189.449219 C 173.859375 199.480469 175.835938 211.046875 181.976562 221.613281 C 188.113281 232.179688 203.777344 239.171875 208.808594 242.515625 C 213.839844 245.859375 218.972656 239.636719 218.972656 239.636719 C 218.972656 239.636719 227.425781 246.257812 231.347656 245.15625 C 235.273438 244.050781 238.324219 238.433594 238.324219 238.433594 C 238.324219 238.433594 243.625 242.816406 247.886719 240.742188 C 251.40625 239.035156 251.039062 231.8125 251.039062 231.8125 C 251.039062 231.8125 259.15625 235.457031 262.207031 231.847656 C 264.925781 228.605469 260.597656 222.484375 260.597656 222.484375 C 260.597656 222.484375 268.179688 223.488281 270.222656 219.84375 C 272.035156 216.632812 263.316406 211.417969 263.316406 211.417969 C 263.316406 211.417969 271.433594 208.375 271.230469 204.496094 C 271.03125 200.984375 263.179688 198.609375 263.179688 198.609375 C 263.179688 198.609375 269.320312 193.859375 267.640625 189.414062 C 266.300781 185.835938 258.988281 185 258.988281 185 C 258.988281 185 265.261719 179.347656 262.746094 174 C 260.867188 170.019531 251.140625 168.28125 251.140625 168.28125 C 251.140625 168.28125 256.171875 159.21875 253.65625 156.445312 C 251.140625 153.667969 241.042969 154.503906 241.042969 154.503906 C 241.042969 154.503906 245.402344 146.277344 242.351562 142.367188 C 240.003906 139.390625 230.878906 140.695312 230.878906 140.695312 C 230.878906 140.695312 232.253906 132.199219 228.332031 130.527344 C 224.40625 128.855469 219.105469 132.199219 219.105469 132.199219 C 219.105469 132.199219 218.269531 122.4375 212.398438 120.230469 C 206.527344 118.023438 203.175781 122.738281 203.175781 122.738281 C 203.175781 122.738281 200.390625 112.972656 197.304688 111.871094 C 194.21875 110.765625 189.523438 117.453125 189.523438 117.453125 C 189.523438 117.453125 185.597656 109.09375 180.867188 110.5 C 176.140625 111.902344 172.785156 118.558594 172.785156 118.558594 C 172.785156 118.558594 167.753906 109.898438 164.132812 110.332031 C 160.507812 110.765625 159.367188 118.023438 159.367188 118.023438 C 159.367188 118.023438 152.929688 111.601562 147.628906 114.945312 C 142.328125 118.289062 147.359375 123.304688 147.359375 123.304688 C 147.359375 123.304688 139.242188 119.394531 136.457031 121.632812 C 133.675781 123.875 140.382812 129.726562 140.382812 129.726562 C 140.382812 129.726562 132.871094 135.007812 134.78125 138.621094 Z M 134.78125 138.621094 " fill-opacity="1" fill-rule="nonzero"/><path fill="#844512" d="M 212.128906 235.894531 C 208.238281 235.894531 203.074219 233.21875 201.765625 232.480469 C 201.160156 232.148438 200.925781 231.378906 201.261719 230.777344 C 201.597656 230.175781 202.367188 229.941406 202.972656 230.277344 C 206.832031 232.382812 212.765625 234.421875 213.875 232.785156 C 215.148438 230.910156 211.828125 224.324219 209.179688 220.476562 C 208.777344 219.910156 208.941406 219.140625 209.511719 218.738281 C 210.082031 218.339844 210.890625 218.503906 211.257812 219.074219 C 212.53125 220.914062 218.671875 230.242188 215.953125 234.222656 C 215.113281 235.425781 213.707031 235.894531 212.128906 235.894531 Z M 224.976562 167.34375 C 226.71875 166.105469 235.238281 159.6875 232.65625 155.308594 C 230.207031 151.160156 219.140625 152.664062 216.925781 153.03125 C 216.222656 153.132812 215.785156 153.769531 215.886719 154.472656 C 215.988281 155.171875 216.65625 155.640625 217.328125 155.507812 C 221.957031 154.773438 229.335938 154.605469 230.476562 156.578125 C 231.484375 158.28125 227.089844 162.761719 223.5 165.304688 C 222.929688 165.707031 222.796875 166.507812 223.199219 167.042969 C 223.433594 167.378906 223.835938 167.578125 224.238281 167.578125 C 224.472656 167.578125 224.742188 167.511719 224.976562 167.34375 Z M 194.921875 168.683594 C 196.0625 166.875 201.464844 157.714844 197.371094 154.636719 C 193.515625 151.730469 183.855469 157.378906 181.976562 158.550781 C 181.371094 158.917969 181.203125 159.6875 181.574219 160.289062 C 181.941406 160.890625 182.714844 161.058594 183.316406 160.691406 C 187.308594 158.25 194.050781 155.273438 195.894531 156.644531 C 197.472656 157.847656 195.125 163.632812 192.808594 167.378906 C 192.441406 167.980469 192.609375 168.75 193.210938 169.117188 C 193.414062 169.25 193.648438 169.316406 193.882812 169.316406 C 194.285156 169.285156 194.6875 169.082031 194.921875 168.683594 Z M 188.582031 204.394531 C 190.496094 203.457031 199.988281 198.609375 198.210938 193.859375 C 196.53125 189.347656 185.328125 188.945312 183.117188 188.914062 C 182.480469 188.945312 181.839844 189.449219 181.839844 190.148438 C 181.839844 190.851562 182.378906 191.421875 183.082031 191.421875 C 187.777344 191.488281 195.058594 192.589844 195.863281 194.730469 C 196.566406 196.601562 191.433594 200.214844 187.476562 202.121094 C 186.839844 202.421875 186.605469 203.15625 186.90625 203.792969 C 187.105469 204.226562 187.578125 204.496094 188.046875 204.496094 C 188.214844 204.527344 188.414062 204.460938 188.582031 204.394531 Z M 159.503906 142.867188 C 160.074219 138.21875 161.949219 131.132812 164.164062 130.5625 C 166.144531 130.09375 169.195312 135.511719 170.671875 139.65625 C 170.90625 140.328125 171.644531 140.660156 172.28125 140.425781 C 172.953125 140.191406 173.289062 139.492188 173.054688 138.820312 C 172.347656 136.816406 168.492188 126.882812 163.5625 128.15625 C 158.863281 129.359375 157.289062 140.394531 157.019531 142.601562 C 156.953125 143.300781 157.421875 143.90625 158.128906 144.003906 C 158.195312 144.003906 158.226562 144.003906 158.292969 144.003906 C 158.898438 143.972656 159.433594 143.503906 159.503906 142.867188 Z M 204.3125 142.535156 C 204.953125 140.492188 207.871094 130.261719 203.140625 128.320312 C 198.679688 126.484375 190.761719 134.375 189.21875 135.945312 C 188.75 136.449219 188.75 137.25 189.253906 137.71875 C 189.757812 138.1875 190.5625 138.1875 191.03125 137.683594 C 194.285156 134.308594 200.054688 129.761719 202.167969 130.628906 C 204.011719 131.398438 203.207031 137.585938 201.898438 141.765625 C 201.699219 142.433594 202.066406 143.136719 202.738281 143.335938 C 202.871094 143.371094 202.972656 143.402344 203.105469 143.402344 C 203.644531 143.402344 204.148438 143.066406 204.3125 142.535156 Z M 218.671875 199.679688 C 220.546875 198.710938 229.90625 193.558594 227.960938 188.84375 C 226.117188 184.398438 214.914062 184.363281 212.699219 184.363281 C 211.996094 184.363281 211.457031 184.933594 211.457031 185.636719 C 211.457031 186.335938 212.027344 186.839844 212.734375 186.871094 C 217.429688 186.804688 224.742188 187.675781 225.613281 189.78125 C 226.386719 191.621094 221.386719 195.398438 217.496094 197.4375 C 216.894531 197.773438 216.625 198.507812 216.960938 199.144531 C 217.195312 199.578125 217.628906 199.8125 218.066406 199.8125 C 218.300781 199.8125 218.503906 199.78125 218.671875 199.679688 Z M 231.015625 228 C 233.128906 227.734375 243.691406 226.195312 243.558594 221.113281 C 243.425781 216.296875 232.960938 212.320312 230.847656 211.582031 C 230.175781 211.347656 229.472656 211.683594 229.234375 212.351562 C 229 213.019531 229.335938 213.722656 230.007812 213.957031 C 234.402344 215.527344 240.976562 218.90625 241.042969 221.179688 C 241.109375 223.1875 235.074219 224.957031 230.746094 225.492188 C 230.042969 225.59375 229.570312 226.195312 229.640625 226.898438 C 229.707031 227.535156 230.242188 228 230.878906 228 C 230.914062 228.035156 230.980469 228.035156 231.015625 228 Z M 248.421875 206.066406 C 250.300781 205.0625 259.558594 199.78125 257.546875 195.097656 C 255.667969 190.683594 244.464844 190.785156 242.25 190.851562 C 241.546875 190.886719 241.007812 191.453125 241.042969 192.15625 C 241.078125 192.859375 241.511719 193.359375 242.351562 193.359375 C 247.011719 193.226562 254.359375 193.996094 255.265625 196.066406 C 256.035156 197.90625 251.105469 201.753906 247.25 203.859375 C 246.644531 204.195312 246.410156 204.960938 246.746094 205.566406 C 246.980469 206 247.414062 206.234375 247.851562 206.234375 C 248.054688 206.199219 248.253906 206.167969 248.421875 206.066406 Z M 248.421875 206.066406 " fill-opacity="1" fill-rule="nonzero"/><g clip-path="url(#6ecfa1f960)"><path fill="#000000" d="M 114.253906 140.960938 C 116.601562 143.335938 113.648438 144.207031 111.269531 146.578125 C 108.886719 148.953125 107.980469 151.894531 105.632812 149.523438 C 103.285156 147.148438 103.285156 143.300781 105.667969 140.960938 C 108.046875 138.554688 111.871094 138.585938 114.253906 140.960938 Z M 140.214844 156.8125 C 140.382812 156.476562 140.316406 156.074219 140.015625 155.839844 C 139.679688 155.574219 139.175781 155.609375 138.90625 155.941406 C 136.695312 158.652344 134.882812 161.660156 133.640625 165.039062 C 133.003906 166.710938 132.636719 168.582031 132.769531 170.621094 C 132.871094 172.628906 134.078125 174.902344 135.921875 175.972656 C 137.597656 177.140625 139.847656 177.542969 141.792969 177.277344 C 143.769531 177.042969 145.582031 176.339844 147.089844 175.304688 C 150.175781 173.328125 152.660156 170.820312 154.671875 167.945312 C 154.875 167.644531 154.839844 167.210938 154.570312 166.941406 C 154.269531 166.640625 153.765625 166.640625 153.464844 166.941406 L 153.429688 166.976562 C 151.082031 169.285156 148.5 171.457031 145.714844 172.929688 C 142.933594 174.398438 139.847656 175 137.597656 173.328125 C 135.320312 172.125 135.351562 168.917969 136.257812 165.839844 C 137.164062 162.832031 138.605469 159.753906 140.214844 156.8125 Z M 140.214844 156.8125 " fill-opacity="1" fill-rule="nonzero"/></g><path fill="#af9887" d="M 141.558594 184.597656 C 138.40625 184.597656 135.820312 187.171875 135.820312 190.316406 C 135.820312 193.460938 138.40625 196.035156 141.558594 196.035156 C 144.710938 196.035156 147.292969 193.460938 147.292969 190.316406 C 147.292969 187.171875 144.742188 184.597656 141.558594 184.597656 Z M 138.90625 190.316406 C 137.96875 190.316406 137.195312 189.546875 137.195312 188.613281 C 137.195312 187.675781 137.96875 186.90625 138.90625 186.90625 C 139.847656 186.90625 140.617188 187.675781 140.617188 188.613281 C 140.617188 189.582031 139.847656 190.316406 138.90625 190.316406 Z M 144.074219 192.824219 C 142.699219 192.824219 141.558594 191.6875 141.558594 190.316406 C 141.558594 188.945312 142.699219 187.808594 144.074219 187.808594 C 145.449219 187.808594 146.589844 188.945312 146.589844 190.316406 C 146.589844 191.722656 145.449219 192.824219 144.074219 192.824219 Z M 144.074219 192.824219 " fill-opacity="1" fill-rule="nonzero"/><g fill="#ffffff" fill-opacity="1"><g transform="translate(119.092827, 77.492839)"><g><path d="M -1.296875 -33.15625 C -0.703125 -32.09375 0.453125 -29.488281 2.171875 -25.34375 L 6.234375 -27.03125 C 8.410156 -27.9375 10.382812 -28.867188 12.15625 -29.828125 C 12.539062 -29.460938 12.9375 -28.785156 13.34375 -27.796875 C 13.863281 -26.535156 13.9375 -25.535156 13.5625 -24.796875 C 13.1875 -24.066406 12.25 -23.390625 10.75 -22.765625 L 4.34375 -20.109375 C 6.726562 -14.335938 8.304688 -10.925781 9.078125 -9.875 C 10.597656 -10.425781 11.820312 -10.894531 12.75 -11.28125 C 18.320312 -13.582031 21.742188 -15.460938 23.015625 -16.921875 C 23.859375 -16.046875 24.554688 -14.945312 25.109375 -13.625 C 25.585938 -12.46875 25.445312 -11.515625 24.6875 -10.765625 C 23.9375 -10.015625 22.210938 -9.082031 19.515625 -7.96875 C 11.359375 -4.59375 6.613281 -2.664062 5.28125 -2.1875 C 4.28125 -1.8125 3.515625 -1.769531 2.984375 -2.0625 C 2.460938 -2.363281 1.984375 -3.035156 1.546875 -4.078125 C 1.328125 -4.617188 0.820312 -5.882812 0.03125 -7.875 C -0.75 -9.875 -1.382812 -11.472656 -1.875 -12.671875 L -6.125 -22.921875 C -8.113281 -27.742188 -9.984375 -31.640625 -11.734375 -34.609375 C -7.453125 -36.710938 -3.019531 -38.71875 1.5625 -40.625 C 6.488281 -42.65625 9.800781 -43.707031 11.5 -43.78125 C 12.238281 -43.800781 12.84375 -43.242188 13.3125 -42.109375 C 13.863281 -40.773438 14.132812 -39.535156 14.125 -38.390625 C 11.582031 -38.171875 7.625 -36.953125 2.25 -34.734375 C 1.570312 -34.453125 0.390625 -33.925781 -1.296875 -33.15625 Z M -1.296875 -33.15625 "/></g></g></g><g fill="#ffffff" fill-opacity="1"><g transform="translate(143.515773, 65.973818)"><g><path d="M -1.53125 -25.828125 C -0.113281 -26.535156 1.273438 -26.988281 2.640625 -27.1875 C 5.296875 -27.5625 6.972656 -26.695312 7.671875 -24.59375 C 9.546875 -27.289062 11.894531 -28.84375 14.71875 -29.25 C 18.226562 -29.75 20.832031 -28.691406 22.53125 -26.078125 C 24.375 -29.210938 26.875 -31.003906 30.03125 -31.453125 C 32.375 -31.796875 34.398438 -31.359375 36.109375 -30.140625 C 37.816406 -28.929688 38.859375 -27.019531 39.234375 -24.40625 C 39.242188 -24.332031 39.40625 -23.003906 39.71875 -20.421875 C 40.03125 -17.847656 40.28125 -15.898438 40.46875 -14.578125 C 40.925781 -11.429688 41.628906 -8.8125 42.578125 -6.71875 C 41.054688 -6.019531 39.492188 -5.550781 37.890625 -5.3125 C 34.960938 -4.894531 33.34375 -5.800781 33.03125 -8.03125 C 32.832031 -9.363281 32.535156 -11.800781 32.140625 -15.34375 C 31.742188 -18.882812 31.492188 -21.019531 31.390625 -21.75 C 31.171875 -23.25 30.75 -24.335938 30.125 -25.015625 C 29.5 -25.703125 28.765625 -25.984375 27.921875 -25.859375 C 26.566406 -25.660156 25.210938 -24.539062 23.859375 -22.5 C 24.609375 -17.820312 25.132812 -14.4375 25.4375 -12.34375 C 25.90625 -9.132812 26.414062 -6.335938 26.96875 -3.953125 C 25.757812 -3.671875 24.679688 -3.457031 23.734375 -3.3125 C 20.078125 -2.789062 18.125 -3.40625 17.875 -5.15625 C 17.84375 -5.332031 17.691406 -6.671875 17.421875 -9.171875 C 17.148438 -11.679688 16.84375 -14.144531 16.5 -16.5625 L 16.046875 -19.640625 C 15.828125 -21.140625 15.398438 -22.210938 14.765625 -22.859375 C 14.140625 -23.503906 13.425781 -23.765625 12.625 -23.640625 C 11.257812 -23.441406 9.90625 -22.320312 8.5625 -20.28125 C 9.300781 -15.601562 9.820312 -12.21875 10.125 -10.125 C 10.59375 -6.914062 11.09375 -4.117188 11.625 -1.734375 C 10.4375 -1.453125 9.363281 -1.242188 8.40625 -1.109375 C 4.757812 -0.578125 2.8125 -1.1875 2.5625 -2.9375 C 2.539062 -3.082031 2.394531 -4.367188 2.125 -6.796875 C 1.863281 -9.234375 1.550781 -11.75 1.1875 -14.34375 C 0.320312 -20.3125 -0.582031 -24.140625 -1.53125 -25.828125 Z M -1.53125 -25.828125 "/></g></g></g><g fill="#ffffff" fill-opacity="1"><g transform="translate(185.161166, 59.474474)"><g><path d="M 6.1875 -25.125 C 7.75 -25.363281 9.210938 -25.378906 10.578125 -25.171875 C 13.234375 -24.742188 14.578125 -23.421875 14.609375 -21.203125 C 17.222656 -23.222656 19.929688 -24.015625 22.734375 -23.578125 C 26.242188 -23.015625 28.414062 -21.226562 29.25 -18.21875 C 31.945312 -20.664062 34.875 -21.640625 38.03125 -21.140625 C 40.363281 -20.765625 42.160156 -19.742188 43.421875 -18.078125 C 44.691406 -16.410156 45.117188 -14.269531 44.703125 -11.65625 C 44.691406 -11.582031 44.453125 -10.269531 43.984375 -7.71875 C 43.523438 -5.175781 43.191406 -3.242188 42.984375 -1.921875 C 42.484375 1.210938 42.367188 3.925781 42.640625 6.21875 C 40.992188 6.4375 39.367188 6.414062 37.765625 6.15625 C 34.835938 5.695312 33.550781 4.359375 33.90625 2.140625 C 34.125 0.804688 34.570312 -1.609375 35.25 -5.109375 C 35.925781 -8.609375 36.320312 -10.722656 36.4375 -11.453125 C 36.675781 -12.960938 36.59375 -14.128906 36.1875 -14.953125 C 35.789062 -15.785156 35.175781 -16.269531 34.34375 -16.40625 C 32.988281 -16.625 31.363281 -15.953125 29.46875 -14.390625 C 28.800781 -9.710938 28.300781 -6.328125 27.96875 -4.234375 C 27.457031 -1.023438 27.101562 1.796875 26.90625 4.234375 C 25.6875 4.140625 24.601562 4.019531 23.65625 3.875 C 20 3.289062 18.3125 2.125 18.59375 0.375 C 18.613281 0.195312 18.863281 -1.125 19.34375 -3.59375 C 19.832031 -6.070312 20.269531 -8.515625 20.65625 -10.921875 L 21.140625 -13.984375 C 21.378906 -15.492188 21.289062 -16.644531 20.875 -17.4375 C 20.46875 -18.238281 19.863281 -18.707031 19.0625 -18.84375 C 17.707031 -19.050781 16.082031 -18.378906 14.1875 -16.828125 C 13.519531 -12.148438 13.019531 -8.765625 12.6875 -6.671875 C 12.175781 -3.460938 11.816406 -0.640625 11.609375 1.796875 C 10.398438 1.710938 9.316406 1.59375 8.359375 1.4375 C 4.722656 0.863281 3.046875 -0.296875 3.328125 -2.046875 C 3.347656 -2.191406 3.59375 -3.46875 4.0625 -5.875 C 4.53125 -8.28125 4.96875 -10.773438 5.375 -13.359375 C 6.320312 -19.316406 6.59375 -23.238281 6.1875 -25.125 Z M 6.1875 -25.125 "/></g></g></g><g fill="#ffffff" fill-opacity="1"><g transform="translate(227.035862, 66.889471)"><g><path d="M 13.3125 -13.28125 C 10.550781 -15.101562 9.59375 -17.019531 10.4375 -19.03125 C 11.019531 -20.394531 12.484375 -21.132812 14.828125 -21.25 C 17.179688 -21.363281 19.738281 -20.835938 22.5 -19.671875 C 26.082031 -18.160156 28.4375 -16.363281 29.5625 -14.28125 C 30.695312 -12.207031 30.597656 -9.59375 29.265625 -6.4375 C 29.148438 -6.164062 28.707031 -5.164062 27.9375 -3.4375 C 27.164062 -1.71875 26.597656 -0.425781 26.234375 0.4375 C 24.585938 4.34375 23.679688 7.40625 23.515625 9.625 C 21.847656 9.394531 20.4375 9.035156 19.28125 8.546875 C 16.832031 7.503906 15.804688 5.914062 16.203125 3.78125 C 15.003906 4.394531 13.644531 4.707031 12.125 4.71875 C 10.601562 4.738281 9.203125 4.476562 7.921875 3.9375 C 6.035156 3.144531 4.707031 1.875 3.9375 0.125 C 3.164062 -1.625 3.285156 -3.6875 4.296875 -6.0625 C 5.097656 -7.976562 6.070312 -9.210938 7.21875 -9.765625 C 8.363281 -10.328125 9.691406 -10.550781 11.203125 -10.4375 C 14.140625 -10.15625 17.425781 -9.378906 21.0625 -8.109375 C 21.925781 -10.171875 22.304688 -11.710938 22.203125 -12.734375 C 22.109375 -13.765625 21.328125 -14.59375 19.859375 -15.21875 C 19.015625 -15.570312 17.953125 -15.597656 16.671875 -15.296875 C 15.398438 -14.992188 14.28125 -14.320312 13.3125 -13.28125 Z M 19.453125 -4.421875 C 18.367188 -4.691406 17.519531 -4.875 16.90625 -4.96875 C 16.300781 -5.0625 15.625 -5.097656 14.875 -5.078125 C 14.125 -5.066406 13.523438 -4.878906 13.078125 -4.515625 C 12.628906 -4.148438 12.257812 -3.625 11.96875 -2.9375 C 11.613281 -2.09375 11.550781 -1.375 11.78125 -0.78125 C 12.007812 -0.1875 12.429688 0.238281 13.046875 0.5 C 14.484375 1.101562 15.851562 1.1875 17.15625 0.75 C 17.25 0.414062 17.445312 -0.109375 17.75 -0.828125 C 18.257812 -2.035156 18.828125 -3.234375 19.453125 -4.421875 Z M 19.453125 -4.421875 "/></g></g></g><g fill="#ffffff" fill-opacity="1"><g transform="translate(194.159275, 315.582525)"><g><path d="M 4.09375 -8.78125 L 3.5625 -18.171875 C 1.9375 -18.054688 0.546875 -17.867188 -0.609375 -17.609375 C -0.898438 -18.296875 -1.066406 -18.953125 -1.109375 -19.578125 C -1.210938 -21.429688 0.0078125 -22.429688 2.5625 -22.578125 L 3.21875 -22.609375 C 3.039062 -24.523438 2.851562 -26.117188 2.65625 -27.390625 C 3.632812 -27.859375 4.769531 -28.125 6.0625 -28.1875 C 6.90625 -28.238281 7.570312 -28.238281 8.0625 -28.1875 C 8.5625 -28.132812 9.050781 -27.898438 9.53125 -27.484375 C 10.007812 -27.078125 10.269531 -26.441406 10.3125 -25.578125 C 10.34375 -25.097656 10.347656 -24.226562 10.328125 -22.96875 C 13.585938 -23.144531 16.164062 -23.414062 18.0625 -23.78125 C 18.3125 -23.34375 18.460938 -22.671875 18.515625 -21.765625 C 18.609375 -20.109375 17.726562 -19.175781 15.875 -18.96875 C 14.675781 -18.832031 12.878906 -18.695312 10.484375 -18.5625 C 10.566406 -15.46875 10.695312 -12.363281 10.875 -9.25 C 10.914062 -8.5 10.960938 -7.925781 11.015625 -7.53125 C 11.066406 -7.132812 11.175781 -6.660156 11.34375 -6.109375 C 11.507812 -5.566406 11.78125 -5.175781 12.15625 -4.9375 C 12.53125 -4.707031 13.003906 -4.609375 13.578125 -4.640625 C 15.128906 -4.722656 16.351562 -5.253906 17.25 -6.234375 C 18.59375 -5.410156 19.289062 -4.535156 19.34375 -3.609375 C 19.394531 -2.710938 18.894531 -1.960938 17.84375 -1.359375 C 16.800781 -0.765625 15.523438 -0.421875 14.015625 -0.328125 C 10.585938 -0.140625 8.117188 -0.753906 6.609375 -2.171875 C 5.097656 -3.585938 4.257812 -5.789062 4.09375 -8.78125 Z M 4.09375 -8.78125 "/></g></g></g><g fill="#ffffff" fill-opacity="1"><g transform="translate(215.910124, 314.445752)"><g><path d="M 20.03125 -7.015625 C 18.40625 -4.554688 15.925781 -2.96875 12.59375 -2.25 C 9.238281 -1.53125 6.320312 -1.957031 3.84375 -3.53125 C 1.363281 -5.113281 -0.238281 -7.59375 -0.96875 -10.96875 C -1.726562 -14.507812 -1.316406 -17.554688 0.265625 -20.109375 C 1.859375 -22.671875 4.332031 -24.3125 7.6875 -25.03125 C 11.019531 -25.75 13.945312 -25.269531 16.46875 -23.59375 C 18.988281 -21.925781 20.628906 -19.320312 21.390625 -15.78125 C 22.117188 -12.40625 21.664062 -9.484375 20.03125 -7.015625 Z M 14.734375 -13.390625 C 14.222656 -15.734375 13.414062 -17.597656 12.3125 -18.984375 C 11.207031 -20.367188 9.984375 -20.914062 8.640625 -20.625 C 7.316406 -20.34375 6.414062 -19.488281 5.9375 -18.0625 C 5.457031 -16.644531 5.4375 -14.910156 5.875 -12.859375 C 6.320312 -10.804688 7.0625 -9.191406 8.09375 -8.015625 C 9.132812 -6.847656 10.316406 -6.40625 11.640625 -6.6875 C 13.015625 -6.988281 13.960938 -7.75 14.484375 -8.96875 C 15.015625 -10.1875 15.097656 -11.660156 14.734375 -13.390625 Z M 14.734375 -13.390625 "/></g></g></g><g fill="#ffffff" fill-opacity="1"><g transform="translate(242.555308, 308.489724)"><g><path d="M 9.546875 -28.4375 C 11.734375 -29.300781 13.113281 -29.007812 13.6875 -27.5625 C 14.238281 -26.1875 14.648438 -23.648438 14.921875 -19.953125 C 15.203125 -16.265625 15.242188 -12.613281 15.046875 -9 C 14.703125 -3.90625 14.03125 0.828125 13.03125 5.203125 C 12.6875 6.859375 11.929688 7.921875 10.765625 8.390625 C 9.273438 8.972656 7.488281 8.65625 5.40625 7.4375 C 7.125 4.613281 8.375 1.117188 9.15625 -3.046875 C 0.832031 -12.378906 -4.722656 -17.625 -7.515625 -18.78125 C -6.210938 -21.019531 -4.878906 -22.410156 -3.515625 -22.953125 C -2.835938 -23.222656 -2.238281 -23.296875 -1.71875 -23.171875 C -1.207031 -23.046875 -0.679688 -22.71875 -0.140625 -22.1875 C 0.734375 -21.34375 2.273438 -19.515625 4.484375 -16.703125 C 6.691406 -13.898438 8.539062 -11.414062 10.03125 -9.25 C 9.851562 -11.945312 9.515625 -14.851562 9.015625 -17.96875 C 8.523438 -21.09375 8.03125 -23.285156 7.53125 -24.546875 C 7.25 -25.242188 6.9375 -25.90625 6.59375 -26.53125 C 7.425781 -27.34375 8.410156 -27.976562 9.546875 -28.4375 Z M 9.546875 -28.4375 "/></g></g></g><g fill="#ffffff" fill-opacity="1"><g transform="translate(266.060416, 298.828825)"><g><path d="M 4.78125 -20.546875 C 4.0625 -21.242188 3.296875 -21.664062 2.484375 -21.8125 C 1.671875 -21.957031 0.941406 -21.835938 0.296875 -21.453125 C -0.335938 -21.085938 -0.773438 -20.613281 -1.015625 -20.03125 C -1.253906 -19.457031 -1.1875 -18.851562 -0.8125 -18.21875 C -0.425781 -17.570312 0.191406 -17.242188 1.046875 -17.234375 C 1.898438 -17.234375 2.847656 -17.378906 3.890625 -17.671875 C 4.941406 -17.972656 6.019531 -18.222656 7.125 -18.421875 C 8.226562 -18.628906 9.328125 -18.523438 10.421875 -18.109375 C 11.523438 -17.703125 12.4375 -16.894531 13.15625 -15.6875 C 14.375 -13.613281 14.472656 -11.5625 13.453125 -9.53125 C 12.441406 -7.507812 10.828125 -5.84375 8.609375 -4.53125 C 7.910156 -4.125 7.203125 -3.75 6.484375 -3.40625 C 5.765625 -3.070312 4.90625 -2.742188 3.90625 -2.421875 C 2.90625 -2.097656 1.992188 -2.035156 1.171875 -2.234375 C 0.347656 -2.429688 -0.285156 -2.898438 -0.734375 -3.640625 C -1.585938 -5.097656 -1.15625 -6.878906 0.5625 -8.984375 C 1.414062 -8.160156 2.363281 -7.722656 3.40625 -7.671875 C 4.445312 -7.628906 5.394531 -7.859375 6.25 -8.359375 C 8.0625 -9.429688 8.582031 -10.617188 7.8125 -11.921875 C 7.445312 -12.554688 6.671875 -12.785156 5.484375 -12.609375 C 4.296875 -12.429688 3.054688 -12.140625 1.765625 -11.734375 C 0.472656 -11.328125 -0.921875 -11.289062 -2.421875 -11.625 C -3.921875 -11.96875 -5.117188 -12.894531 -6.015625 -14.40625 C -7.140625 -16.332031 -7.222656 -18.359375 -6.265625 -20.484375 C -5.316406 -22.609375 -3.8125 -24.28125 -1.75 -25.5 C -0.8125 -26.039062 0.195312 -26.492188 1.28125 -26.859375 C 2.363281 -27.234375 3.46875 -27.359375 4.59375 -27.234375 C 5.71875 -27.109375 6.523438 -26.628906 7.015625 -25.796875 C 7.441406 -25.066406 7.476562 -24.238281 7.125 -23.3125 C 6.78125 -22.394531 6 -21.472656 4.78125 -20.546875 Z M 4.78125 -20.546875 "/></g></g></g></svg>