<svg width="1em" height="1em" viewBox="0 0 24 24" fill="none" xmlns="http://www.w3.org/2000/svg" data-icon="WikiColorful"><path d="M.78 6.47A1 1 0 0 1 1.664 5h13.672a1 1 0 0 1 .883 1.47L9.383 19.337a1 1 0 0 1-1.766 0L.78 6.469Z" fill="url(#udsXiV1mysv3tUqtai4nVjwq__a)"></path><path d="M7.78 6.47A1 1 0 0 1 8.664 5h13.672a1 1 0 0 1 .884 1.47l-6.837 12.868a1 1 0 0 1-1.766 0L7.78 6.469Z" fill="url(#udsXiV1mysv3tUqtai4nVjwq__b)"></path><path d="M17 5H7l5 9.412L17 5Z" fill="url(#udsXiV1mysv3tUqtai4nVjwq__c)"></path><defs><linearGradient id="udsXiV1mysv3tUqtai4nVjwq__a" x1="16.338" y1="5" x2="0.662" y2="5" gradientUnits="userSpaceOnUse"><stop stop-color="#14C0FF"></stop><stop offset="1" stop-color="#50CEFB"></stop></linearGradient><linearGradient id="udsXiV1mysv3tUqtai4nVjwq__b" x1="23.126" y1="5.126" x2="7.717" y2="5.126" gradientUnits="userSpaceOnUse"><stop stop-color="#F01D94"></stop><stop offset="1" stop-color="#F14BA9"></stop></linearGradient><linearGradient id="udsXiV1mysv3tUqtai4nVjwq__c" x1="17.378" y1="4.923" x2="6.773" y2="10.883" gradientUnits="userSpaceOnUse"><stop stop-color="#000BFF"></stop><stop offset="1" stop-color="#5C63FF"></stop></linearGradient></defs></svg>