<svg t="1679821937632" class="icon" viewBox="0 0 1024 1024" version="1.1" xmlns="http://www.w3.org/2000/svg" p-id="2494" width="16" height="16"><path d="M892.27 429.504c19.186-58.455 14.412-124.523-18.723-182.007-50.138-86.983-149.724-127.54-242.658-106.62-40.952-45.858-100.457-74.744-166.716-74.744-99.33 0-183.52 64.87-212.685 154.616-60.508 12.392-115.648 49.657-148.956 107.443-50.304 87.27-35.309 194.349 29.792 264.493-19.882 58.899-15.347 125.74 18.13 183.816 50.152 87.006 149.78 127.563 242.739 106.603 40.949 45.87 100.46 74.763 166.728 74.763 100.305 0 185.184-66.142 213.54-157.257 60.135-12.587 114.872-49.762 148.007-107.245 50.152-87.008 35.405-193.706-29.197-263.861z m-72.5-155.836l4.26 7.39c19.637 34.067 25.286 72.346 18.829 108.248-1.08-0.649-2.153-1.302-3.247-1.933L658.447 282.607a17.011 17.011 0 0 0-18.55-0.994L417.22 410.383v-88.68l184.34-106.601c76.4-44.18 174.097-17.96 218.21 58.566zM606.78 457.19v107.177l-96.845 56.004-92.715-53.615V457.19L512 402.38l94.78 54.81zM300.17 285.867c0-88.365 71.519-160 159.743-160h8.52c39.256 0 75.164 14.225 102.972 37.758-1.118 0.622-2.24 1.239-3.352 1.881L386.89 270.272a17.062 17.062 0 0 0-10.134 15.595v257.487l-76.58-44.286V285.867z m-148.123 75.887l4.26-7.39c19.663-34.112 49.99-58.17 84.318-70.505a227.03 227.03 0 0 0-0.092 6.274v209.53c-0.687 6.504 2.396 13.107 8.416 16.587l220.517 127.522-74.612 43.146-184.337-106.6c-76.403-44.184-102.581-142.037-58.47-218.564z m52.183 388.578l-4.26-7.39c-20.038-34.763-25.504-73.91-18.41-110.443 0.94 0.563 1.875 1.133 2.826 1.683l181.165 104.766a17.011 17.011 0 0 0 18.55 0.994l222.677-128.77v91.123l-184.34 106.601c-76.4 44.181-174.097 17.963-218.208-58.564z m519.693-12.199c0 88.365-71.518 160-159.742 160h-8.52c-39.273 0-75.196-14.24-103.008-37.79 1.098-0.612 2.201-1.218 3.294-1.85L637.11 753.729a17.062 17.062 0 0 0 10.134-15.595v-257.54l76.676 44.341v213.2z m148.028-78.331l-4.26 7.39c-19.638 34.067-49.91 58.107-84.18 70.457 0.022-1.26 0.047-2.517 0.047-3.782v-209.53c0.687-6.504-2.397-13.107-8.416-16.589l-222.677-128.77 76.676-44.341 184.34 106.6c76.403 44.184 102.58 142.038 58.47 218.565z" p-id="2495" fill="#777777"></path></svg>